<svg class="h-10 w-auto"  viewBox="0 0 332 90" version="1.1" xmlns="http://www.w3.org/2000/svg" xmlns:xlink="http://www.w3.org/1999/xlink">
    <g stroke="none" stroke-width="1" fill="none" fill-rule="evenodd">
        <g id="logo2">
            <g id="logo">
                <path class="fill-indigo-500" d="M0,8 L0,82 C5.41083001e-16,86.418278 3.581722,90 8,90 L82,90 C86.418278,90 90,86.418278 90,82 L90,8 C90,3.581722 86.418278,-8.11624501e-16 82,0 L8,0 C3.581722,8.11624501e-16 -5.41083001e-16,3.581722 0,8 Z"></path>
                <path class="fill-white" d="M48.09375,19.8632812 L48.09375,27.4570312 L77.3085938,27.4570312 L77.3085938,34.0664062 L48.09375,34.0664062 L48.09375,43.9804688 L66.3398438,43.9804688 C68.4726562,43.9804688 70.0664062,44.1328125 71.1210938,44.4375 C73.2773438,45.09375 74.9414062,46.4648438 76.1132812,48.5507812 C76.8398438,49.8867188 77.203125,51.5039062 77.203125,53.4023438 L77.203125,69.2226562 C77.203125,71.9648438 76.7578125,73.96875 75.8671875,75.234375 C74.8359375,76.7109375 73.6757812,77.765625 72.3867188,78.3984375 C71.1679688,79.0078125 69.5859375,79.3125 67.640625,79.3125 L23.6601562,79.3125 C20.8476562,79.3125 18.84375,78.9140625 17.6484375,78.1171875 C16.1953125,77.15625 15.0820312,75.9140625 14.3085938,74.390625 C13.7226562,73.21875 13.4296875,72.0585938 13.4296875,70.9101562 L13.4296875,53.578125 C13.4296875,50.625 14.2265625,48.3398438 15.8203125,46.7226562 C16.828125,45.6914062 17.9296875,44.9648438 19.125,44.5429688 C20.1796875,44.1679688 21.6445312,43.9804688 23.5195312,43.9804688 L41.5898438,43.9804688 L41.5898438,34.0664062 L12.9023438,34.0664062 L12.9023438,27.4570312 L41.5898438,27.4570312 L41.5898438,19.8632812 L48.09375,19.8632812 Z M66.9023438,50.484375 L25.03125,50.484375 C22.9921875,50.484375 21.609375,50.90625 20.8828125,51.75 C20.25,52.5234375 19.9335938,53.53125 19.9335938,54.7734375 L19.9335938,66.1289062 C19.9335938,69.0117188 20.3203125,70.875 21.09375,71.71875 C21.75,72.4453125 23.0742188,72.8085938 25.0664062,72.8085938 L65.0039062,72.8085938 C67.0429688,72.8085938 68.3320312,72.6328125 68.8710938,72.28125 C70.0195312,71.5078125 70.59375,70.5117188 70.59375,69.2929688 L70.59375,54.4570312 C70.59375,53.2851562 70.3125,52.3710938 69.75,51.7148438 C69.0234375,50.8945312 68.0742188,50.484375 66.9023438,50.484375 Z"></path>
            </g>
            <path class="fill-slate-900" d="M314.484375,43.3476562 C313.945312,50.4492188 313.21875,55.78125 312.304688,59.34375 L331.851562,59.34375 L331.851562,65.8476562 L319.792969,65.8476562 C321.667969,68.0039062 323.660156,69.6796875 325.769531,70.875 C327.503906,71.859375 329.53125,72.65625 331.851562,73.265625 L331.851562,79.5234375 C327.726562,78.65625 324.621094,77.6601562 322.535156,76.5351562 C318.222656,74.2148438 314.730469,70.6523438 312.058594,65.8476562 L310.054688,65.8476562 C308.203125,69.0351562 306.5625,71.3085938 305.132812,72.6679688 C302.554688,75.1523438 299.390625,77.0039062 295.640625,78.2226562 C294.421875,78.6210938 292.664062,79.0546875 290.367188,79.5234375 L290.367188,73.265625 C293.601562,72.28125 296.015625,71.2734375 297.609375,70.2421875 C298.96875,69.3515625 300.5625,67.8867188 302.390625,65.8476562 L291,65.8476562 L291,59.34375 L305.695312,59.34375 C306.632812,55.921875 307.230469,52.921875 307.488281,50.34375 C307.582031,49.5703125 307.792969,47.2382812 308.121094,43.3476562 Z M272.332031,35.7539062 C275.144531,35.7539062 277.019531,36.0703125 277.957031,36.703125 C278.871094,37.3359375 279.539062,38.015625 279.960938,38.7421875 C280.5,39.6796875 280.769531,41.0390625 280.769531,42.8203125 L280.769531,69.9257812 C280.769531,71.2617188 280.921875,72.09375 281.226562,72.421875 C281.578125,72.7734375 282.351562,72.9492188 283.546875,72.9492188 L286.921875,72.9492188 L286.921875,79.453125 L281.683594,79.453125 C279.386719,79.453125 277.816406,79.1484375 276.972656,78.5390625 C275.167969,77.203125 274.265625,75.375 274.265625,73.0546875 L274.265625,45.4921875 C274.265625,44.1796875 274.089844,43.3125 273.738281,42.890625 C273.386719,42.46875 272.625,42.2578125 271.453125,42.2578125 L267.304688,42.2578125 L267.304688,35.7539062 Z M138.847656,38.9882812 L138.847656,46.828125 L159.519531,46.828125 C162.613281,46.828125 164.722656,47.3554688 165.847656,48.4101562 C166.597656,49.0898438 166.972656,50.0742188 166.972656,51.3632812 C166.972656,53.7304688 165.484375,56.765625 162.507812,60.46875 C157.1875,67.1015625 151.011719,72.0820312 143.980469,75.4101562 C139.222656,77.6367188 134.535156,78.9609375 129.917969,79.3828125 L129.917969,73.0195312 C134.816406,71.9179688 139.070312,70.3476562 142.679688,68.3085938 C147.15625,65.8007812 150.953125,62.8125 154.070312,59.34375 C155.453125,57.8203125 156.894531,55.78125 158.394531,53.2265625 L104.324219,53.2265625 L104.324219,46.6875 L132.34375,46.7929688 L132.34375,38.9882812 L138.847656,38.9882812 Z M241.203125,19.6171875 C243.453125,19.6171875 245.433594,20.4960938 247.144531,22.2539062 C248.785156,23.9414062 249.605469,26.0039062 249.605469,28.4414062 L249.605469,70.1367188 C249.605469,73.4648438 248.386719,75.9609375 245.949219,77.625 C244.308594,78.75 242.527344,79.3125 240.605469,79.3125 L237.96875,79.3125 L237.96875,72.84375 L239.480469,72.84375 C240.511719,72.84375 241.402344,72.4101562 242.152344,71.5429688 C242.785156,70.8164062 243.101562,69.7265625 243.101562,68.2734375 L243.101562,30.0585938 C243.101562,27.4335938 241.660156,26.1210938 238.777344,26.1210938 L207.523438,26.1210938 L207.523438,19.6171875 Z M192.828125,31.078125 L192.828125,79.3125 L186.324219,79.3125 L186.324219,31.078125 L192.828125,31.078125 Z M209.703125,30.8671875 L209.703125,35.4375 L225.242188,35.4375 L225.242188,30.8671875 L231.78125,30.8671875 L231.78125,35.4375 C235.8125,36.328125 237.828125,38.4960938 237.828125,41.9414062 L237.828125,49.0429688 C237.828125,51.6445312 237.277344,53.5195312 236.175781,54.6679688 C234.746094,56.1679688 233.070312,56.9179688 231.148438,56.9179688 L227.703125,56.9179688 L227.703125,65.53125 C227.703125,66.65625 227.878906,67.3945312 228.230469,67.7460938 C228.605469,68.1210938 229.214844,68.3085938 230.058594,68.3085938 L237.722656,68.3085938 L237.722656,74.8828125 L228.300781,74.8828125 C225.863281,74.8828125 223.941406,74.203125 222.535156,72.84375 C221.339844,71.671875 220.742188,70.1132812 220.742188,68.1679688 L220.742188,56.9179688 L212.480469,56.9179688 C211.144531,62.6367188 209.832031,66.6796875 208.542969,69.046875 C207.160156,71.5546875 205.167969,73.3242188 202.566406,74.3554688 C201.628906,74.7304688 200.292969,75.0585938 198.558594,75.3398438 L198.558594,68.6953125 C200.808594,68.390625 202.402344,67.265625 203.339844,65.3203125 C204.113281,63.6796875 204.957031,60.8789062 205.871094,56.9179688 L204.570312,56.9179688 C202.578125,56.9179688 200.902344,56.25 199.542969,54.9140625 C198.347656,53.7421875 197.75,52.0078125 197.75,49.7109375 L197.75,41.484375 C197.75,39.9140625 198.359375,38.5546875 199.578125,37.40625 C200.46875,36.5859375 201.675781,35.9765625 203.199219,35.578125 L203.199219,30.8671875 L209.703125,30.8671875 Z M304.710938,51.1875 L304.710938,56.8125 L291,56.8125 L291,51.1875 L304.710938,51.1875 Z M314.625,19.7226562 L314.625,23.0273438 L331.851562,23.0273438 L331.851562,29.53125 L314.625,29.53125 L314.625,33.328125 L324.960938,33.328125 C327.234375,33.328125 328.957031,33.9023438 330.128906,35.0507812 C331.277344,36.1757812 331.851562,37.453125 331.851562,38.8828125 L331.851562,50.625 L325.382812,50.625 L325.417969,42.890625 C325.417969,41.71875 325.207031,40.9101562 324.785156,40.4648438 C324.410156,40.0429688 323.519531,39.8320312 322.113281,39.8320312 L291.035156,39.8320312 L291.035156,33.328125 L308.121094,33.328125 L308.121094,29.53125 L291.035156,29.53125 L291.035156,23.0273438 L308.121094,23.0273438 L308.121094,19.7226562 L314.625,19.7226562 Z M229.039062,41.9414062 L206.785156,41.9414062 C205.167969,41.9414062 204.359375,42.5507812 204.359375,43.7695312 L204.359375,47.9882812 C204.359375,49.5351562 204.980469,50.3085938 206.222656,50.3085938 L229.460938,50.3085938 C230.679688,50.3085938 231.289062,49.5351562 231.289062,47.9882812 L231.289062,43.9804688 C231.289062,43.4179688 231.078125,42.890625 230.65625,42.3984375 C230.375,42.09375 229.835938,41.9414062 229.039062,41.9414062 Z M304.710938,43.5585938 L304.710938,49.1835938 L291,49.1835938 L291,43.5585938 L304.710938,43.5585938 Z M146.195312,19.5820312 C149.523438,19.5820312 152.019531,20.1679688 153.683594,21.3398438 C155.113281,22.3710938 156.203125,23.71875 156.953125,25.3828125 L159.378906,30.7617188 C160.175781,32.5195312 160.796875,33.65625 161.242188,34.171875 C162.273438,35.3671875 163.796875,36.0703125 165.8125,36.28125 C166.09375,36.3046875 166.691406,36.3632812 167.605469,36.4570312 C167.816406,36.4570312 168.109375,36.4804688 168.484375,36.5273438 L168.554688,42.9609375 C165.085938,42.7734375 162.695312,42.4453125 161.382812,41.9765625 C158.570312,41.015625 156.378906,38.9414062 154.808594,35.7539062 L151.363281,28.7226562 C150.519531,27.0351562 148.914062,26.1914062 146.546875,26.1914062 L125.628906,26.1914062 C124.480469,26.2148438 123.449219,26.7070312 122.535156,27.6679688 C122.113281,28.1367188 121.597656,28.8398438 120.988281,29.7773438 L116.136719,37.3710938 C114.613281,39.7617188 112.515625,41.3789062 109.84375,42.2226562 C108.507812,42.6445312 106.433594,42.9140625 103.621094,43.03125 L103.621094,36.5273438 C105.566406,36.3867188 106.972656,36.1640625 107.839844,35.859375 C109.105469,35.4140625 110.054688,34.7109375 110.6875,33.75 L115.75,26.015625 C117.460938,23.4140625 118.9375,21.7382812 120.179688,20.9882812 C121.539062,20.1445312 123.296875,19.6757812 125.453125,19.5820312 Z M281.753906,20.2851562 L281.753906,26.7890625 L267.304688,26.7890625 L267.304688,20.2851562 L281.753906,20.2851562 Z M201.441406,19.6171875 L201.441406,25.6992188 L186.324219,25.6992188 L186.324219,19.6171875 L201.441406,19.6171875 Z"></path>
        </g>
    </g>
</svg>
