<svg class="h-10 w-auto" viewBox="0 0 90 90" version="1.1" xmlns="http://www.w3.org/2000/svg" xmlns:xlink="http://www.w3.org/1999/xlink">
    <g  stroke="none" stroke-width="1" fill="none" fill-rule="evenodd">
        <g id="logo">
            <path class="fill-indigo-500" d="M0,8 L0,82 C5.41083001e-16,86.418278 3.581722,90 8,90 L82,90 C86.418278,90 90,86.418278 90,82 L90,8 C90,3.581722 86.418278,-8.11624501e-16 82,0 L8,0 C3.581722,8.11624501e-16 -5.41083001e-16,3.581722 0,8 Z"></path>
            <path class="fill-white" d="M48.09375,19.8632812 L48.09375,27.4570312 L77.3085938,27.4570312 L77.3085938,34.0664062 L48.09375,34.0664062 L48.09375,43.9804688 L66.3398438,43.9804688 C68.4726562,43.9804688 70.0664062,44.1328125 71.1210938,44.4375 C73.2773438,45.09375 74.9414062,46.4648438 76.1132812,48.5507812 C76.8398438,49.8867188 77.203125,51.5039062 77.203125,53.4023438 L77.203125,69.2226562 C77.203125,71.9648438 76.7578125,73.96875 75.8671875,75.234375 C74.8359375,76.7109375 73.6757812,77.765625 72.3867188,78.3984375 C71.1679688,79.0078125 69.5859375,79.3125 67.640625,79.3125 L23.6601562,79.3125 C20.8476562,79.3125 18.84375,78.9140625 17.6484375,78.1171875 C16.1953125,77.15625 15.0820312,75.9140625 14.3085938,74.390625 C13.7226562,73.21875 13.4296875,72.0585938 13.4296875,70.9101562 L13.4296875,53.578125 C13.4296875,50.625 14.2265625,48.3398438 15.8203125,46.7226562 C16.828125,45.6914062 17.9296875,44.9648438 19.125,44.5429688 C20.1796875,44.1679688 21.6445312,43.9804688 23.5195312,43.9804688 L41.5898438,43.9804688 L41.5898438,34.0664062 L12.9023438,34.0664062 L12.9023438,27.4570312 L41.5898438,27.4570312 L41.5898438,19.8632812 L48.09375,19.8632812 Z M66.9023438,50.484375 L25.03125,50.484375 C22.9921875,50.484375 21.609375,50.90625 20.8828125,51.75 C20.25,52.5234375 19.9335938,53.53125 19.9335938,54.7734375 L19.9335938,66.1289062 C19.9335938,69.0117188 20.3203125,70.875 21.09375,71.71875 C21.75,72.4453125 23.0742188,72.8085938 25.0664062,72.8085938 L65.0039062,72.8085938 C67.0429688,72.8085938 68.3320312,72.6328125 68.8710938,72.28125 C70.0195312,71.5078125 70.59375,70.5117188 70.59375,69.2929688 L70.59375,54.4570312 C70.59375,53.2851562 70.3125,52.3710938 69.75,51.7148438 C69.0234375,50.8945312 68.0742188,50.484375 66.9023438,50.484375 Z"></path>
        </g>
    </g>
</svg>
